<svg width="269" height="97" viewBox="0 0 269 97" fill="none" xmlns="http://www.w3.org/2000/svg">
<path d="M139.183 36.185C138.784 36.795 138.31 37.3526 137.773 37.845C137.193 38.3671 136.548 38.8108 135.853 39.165C134.305 39.9568 132.591 40.3649 130.853 40.355C129.259 40.3701 127.678 40.0675 126.203 39.465C124.808 38.9014 123.541 38.0617 122.479 36.9962C121.417 35.9308 120.582 34.6616 120.023 33.265C119.417 31.7623 119.115 30.1549 119.133 28.535C119.115 26.9151 119.417 25.3077 120.023 23.805C120.582 22.4084 121.417 21.1392 122.479 20.0738C123.541 19.0083 124.808 18.1686 126.203 17.605C127.678 17.0025 129.259 16.6999 130.853 16.715C132.293 16.7232 133.718 17.0049 135.053 17.545C136.474 18.1138 137.715 19.0573 138.643 20.275L136.643 21.765C136.359 21.3617 136.023 20.9985 135.643 20.685C135.225 20.2962 134.762 19.9604 134.263 19.685C133.731 19.4044 133.171 19.1799 132.593 19.015C132.014 18.8494 131.415 18.7652 130.813 18.765C129.476 18.7441 128.152 19.0173 126.933 19.565C125.858 20.0772 124.899 20.8018 124.113 21.695C123.308 22.6003 122.686 23.6531 122.283 24.795C121.437 27.1892 121.437 29.8008 122.283 32.195C122.686 33.3369 123.308 34.3897 124.113 35.295C124.926 36.1978 125.916 36.923 127.023 37.425C128.242 37.9693 129.567 38.239 130.903 38.215C131.493 38.2147 132.082 38.1611 132.663 38.055C133.256 37.9468 133.834 37.7654 134.383 37.515C134.958 37.2608 135.494 36.9239 135.973 36.515C136.496 36.0242 136.947 35.462 137.313 34.845L139.183 36.185Z" fill="white"/>
<path d="M162.793 28.495C162.796 27.2338 162.579 25.9818 162.153 24.795C161.748 23.6533 161.127 22.6006 160.323 21.695C159.51 20.7917 158.519 20.0665 157.413 19.565C156.188 19.0415 154.87 18.7716 153.538 18.7716C152.206 18.7716 150.887 19.0415 149.663 19.565C148.556 20.0665 147.565 20.7917 146.753 21.695C145.948 22.6 145.326 23.6529 144.923 24.795C144.075 27.1889 144.075 29.8011 144.923 32.195C145.326 33.3371 145.948 34.39 146.753 35.295C147.565 36.1985 148.556 36.9238 149.663 37.425C150.887 37.949 152.205 38.2192 153.538 38.2192C154.87 38.2192 156.188 37.949 157.413 37.425C158.519 36.9235 159.51 36.1983 160.323 35.295C161.127 34.3895 161.748 33.3368 162.153 32.195C162.579 31.0082 162.796 29.7562 162.793 28.495ZM165.273 28.495C165.291 30.1182 164.989 31.7291 164.383 33.235C163.824 34.6316 162.988 35.9008 161.926 36.9662C160.864 38.0317 159.597 38.8714 158.203 39.435C155.213 40.6215 151.882 40.6215 148.893 39.435C147.498 38.8714 146.231 38.0317 145.169 36.9662C144.107 35.9008 143.272 34.6316 142.713 33.235C141.527 30.1897 141.527 26.8103 142.713 23.765C143.272 22.3687 144.108 21.0998 145.17 20.0344C146.232 18.969 147.498 18.1291 148.893 17.565C151.883 16.3795 155.212 16.3795 158.203 17.565C159.597 18.1286 160.864 18.9683 161.926 20.0338C162.988 21.0992 163.824 22.3684 164.383 23.765C164.988 25.2677 165.29 26.8751 165.273 28.495Z" fill="white"/>
<path d="M172.113 37.645H176.562C178.086 37.6787 179.601 37.4137 181.023 36.865C182.207 36.4165 183.286 35.7289 184.193 34.845C185.022 33.9913 185.657 32.9678 186.053 31.845C186.858 29.6603 186.858 27.2597 186.053 25.075C185.646 23.9809 185.012 22.9856 184.193 22.155C183.296 21.2559 182.224 20.5512 181.042 20.085C179.621 19.5368 178.106 19.2719 176.583 19.305H172.113V37.645ZM169.823 17.245H177.292C178.724 17.2509 180.146 17.4872 181.503 17.945C182.894 18.4021 184.187 19.118 185.312 20.055C186.485 21.0202 187.44 22.2234 188.113 23.585C188.822 25.1221 189.164 26.803 189.113 28.495C189.168 30.1938 188.826 31.8821 188.113 33.425C187.451 34.7742 186.514 35.9699 185.363 36.935C184.237 37.8728 182.944 38.5888 181.553 39.045C180.196 39.5033 178.774 39.7396 177.342 39.745H169.872L169.823 17.245Z" fill="white"/>
<path d="M196.322 17.245H194.032V39.745H196.322V17.245Z" fill="white"/>
<path d="M219.002 36.315H219.072V17.245H221.352V39.745H218.492L205.082 20.485H205.022V39.745H202.732V17.245H205.592L219.002 36.315Z" fill="white"/>
<path d="M244.393 21.375C243.62 20.5612 242.692 19.9116 241.663 19.465C239.227 18.5077 236.512 18.5436 234.103 19.565C232.996 20.0663 232.005 20.7915 231.193 21.695C230.387 22.5999 229.766 23.6528 229.363 24.795C228.515 27.1889 228.515 29.8011 229.363 32.195C229.766 33.3371 230.387 34.39 231.193 35.295C232.008 36.1994 233.002 36.9247 234.113 37.425C235.332 37.9693 236.657 38.239 237.993 38.215C239.123 38.2189 240.249 38.0743 241.343 37.785C242.349 37.5259 243.317 37.1359 244.223 36.625V29.095H238.853V26.995H246.513V37.995C245.204 38.7519 243.798 39.324 242.333 39.695C240.917 40.0745 239.458 40.2728 237.993 40.285C236.395 40.3014 234.811 39.9988 233.333 39.395C231.938 38.8309 230.672 37.991 229.61 36.9256C228.548 35.8602 227.712 34.5913 227.153 33.195C225.962 30.1506 225.962 26.7694 227.153 23.725C227.712 22.3287 228.548 21.0598 229.61 19.9944C230.672 18.929 231.938 18.0891 233.333 17.525C234.811 16.9212 236.395 16.6186 237.993 16.635C239.575 16.6009 241.151 16.855 242.643 17.385C243.951 17.8984 245.134 18.686 246.113 19.695L244.393 21.375Z" fill="white"/>
<path d="M126.333 73.955H132.853C138.193 73.955 142.113 69.955 142.113 64.105C142.113 58.255 138.013 54.165 132.543 54.165H126.343L126.333 73.955ZM132.673 48.105C142.563 48.105 149.453 54.625 149.453 64.105C149.453 73.585 142.453 80.105 132.403 80.105H119.113V48.105H132.673Z" fill="white"/>
<path d="M160.112 64.065C160.102 65.3686 160.348 66.6614 160.838 67.8697C161.327 69.0779 162.05 70.1778 162.965 71.1065C163.88 72.0353 164.968 72.7746 166.169 73.2822C167.37 73.7898 168.659 74.0558 169.962 74.065C171.93 74.0828 173.858 73.5165 175.503 72.4378C177.148 71.3591 178.436 69.8165 179.204 68.0053C179.972 66.1942 180.185 64.1959 179.816 62.2635C179.448 60.3312 178.514 58.5516 177.134 57.1501C175.753 55.7486 173.988 54.7882 172.061 54.3906C170.135 53.993 168.134 54.1759 166.311 54.9163C164.489 55.6567 162.927 56.9213 161.823 58.5499C160.72 60.1785 160.124 62.0978 160.112 64.065ZM187.012 64.065C187.012 73.275 179.622 80.345 169.872 80.345C160.122 80.345 152.732 73.345 152.732 64.065C152.732 54.785 160.112 47.845 169.832 47.845C179.552 47.845 186.972 54.845 186.972 64.065" fill="white"/>
<path d="M209.583 69.845C209.583 76.545 205.483 80.375 198.873 80.375C196.868 80.3822 194.888 79.9362 193.08 79.0704C191.272 78.2045 189.684 76.9413 188.433 75.375L191.763 70.265C193.993 72.635 196.553 73.825 198.513 73.825C200.883 73.825 202.343 72.365 202.343 69.635V54.215H191.343V48.105H209.583V69.845Z" fill="white"/>
<path d="M221.803 64.065C221.792 65.3686 222.039 66.6614 222.528 67.8697C223.017 69.0779 223.74 70.1778 224.655 71.1065C225.57 72.0353 226.659 72.7746 227.859 73.2822C229.06 73.7898 230.349 74.0558 231.653 74.065C233.62 74.0828 235.548 73.5165 237.193 72.4378C238.838 71.3591 240.126 69.8165 240.894 68.0053C241.662 66.1942 241.875 64.1959 241.507 62.2635C241.138 60.3312 240.204 58.5516 238.824 57.1501C237.444 55.7486 235.678 54.7882 233.752 54.3906C231.825 53.993 229.824 54.1759 228.001 54.9163C226.179 55.6567 224.617 56.9213 223.513 58.5499C222.41 60.1785 221.815 62.0978 221.803 64.065ZM248.703 64.065C248.703 73.275 241.313 80.345 231.563 80.345C221.813 80.345 214.423 73.345 214.423 64.065C214.423 54.785 221.803 47.845 231.553 47.845C241.303 47.845 248.703 54.845 248.703 64.065Z" fill="white"/>
<path d="M60.4426 38.215H50.4526V38.255H60.4426V38.215Z" fill="white"/>
<path d="M77.4325 28.345V38.215H50.4325V28.345H77.4325ZM20.1125 14.535C20.1125 14.535 29.4426 23.535 33.8326 27.535C34.3566 27.9238 34.9901 28.1372 35.6425 28.145C37.1125 28.235 38.5826 28.145 40.0425 28.145V38.365H36.4025V48.575H39.9925V82.475H50.4525V48.665H77.5226V82.475H87.8625V48.555H91.5325C91.5325 46.665 91.5325 44.835 91.5325 43.025V38.365C91.5325 38.365 89.7125 38.365 87.8625 38.365V28.215H91.5325C92.1407 28.2428 92.748 28.1423 93.3148 27.92C93.8816 27.6978 94.3953 27.3588 94.8225 26.925C98.7025 23.185 108.443 14.535 108.443 14.535H20.1125Z" fill="white"/>
</svg>